<svg xmlns="http://www.w3.org/2000/svg" viewBox="0 0 16 16" shape-rendering="crispEdges"><defs><radialGradient id="g" cx="50%" cy="50%" r="60%"><stop offset="0%" stop-color="#1a1410"/><stop offset="100%" stop-color="#0b0a10"/></radialGradient></defs><rect width="16" height="16" fill="url(#g)"/><rect x="5" y="1" width="1" height="1" fill="#14121c"/><rect x="6" y="1" width="1" height="1" fill="#14121c"/><rect x="7" y="1" width="1" height="1" fill="#14121c"/><rect x="8" y="1" width="1" height="1" fill="#14121c"/><rect x="9" y="1" width="1" height="1" fill="#14121c"/><rect x="10" y="1" width="1" height="1" fill="#14121c"/><rect x="4" y="2" width="1" height="1" fill="#14121c"/><rect x="5" y="2" width="1" height="1" fill="#4e5a72"/><rect x="6" y="2" width="1" height="1" fill="#3a4458"/><rect x="7" y="2" width="1" height="1" fill="#3a4458"/><rect x="8" y="2" width="1" height="1" fill="#3a4458"/><rect x="9" y="2" width="1" height="1" fill="#3a4458"/><rect x="10" y="2" width="1" height="1" fill="#4e5a72"/><rect x="11" y="2" width="1" height="1" fill="#14121c"/><rect x="3" y="3" width="1" height="1" fill="#14121c"/><rect x="4" y="3" width="1" height="1" fill="#4e5a72"/><rect x="5" y="3" width="1" height="1" fill="#3a4458"/><rect x="6" y="3" width="1" height="1" fill="#3a4458"/><rect x="7" y="3" width="1" height="1" fill="#3a4458"/><rect x="8" y="3" width="1" height="1" fill="#3a4458"/><rect x="9" y="3" width="1" height="1" fill="#3a4458"/><rect x="10" y="3" width="1" height="1" fill="#3a4458"/><rect x="11" y="3" width="1" height="1" fill="#4e5a72"/><rect x="12" y="3" width="1" height="1" fill="#14121c"/><rect x="3" y="4" width="1" height="1" fill="#14121c"/><rect x="4" y="4" width="1" height="1" fill="#242c3c"/><rect x="5" y="4" width="1" height="1" fill="#14121c"/><rect x="6" y="4" width="1" height="1" fill="#e8c8a0"/><rect x="7" y="4" width="1" height="1" fill="#e8c8a0"/><rect x="8" y="4" width="1" height="1" fill="#e8c8a0"/><rect x="9" y="4" width="1" height="1" fill="#e8c8a0"/><rect x="10" y="4" width="1" height="1" fill="#14121c"/><rect x="11" y="4" width="1" height="1" fill="#242c3c"/><rect x="12" y="4" width="1" height="1" fill="#14121c"/><rect x="3" y="5" width="1" height="1" fill="#14121c"/><rect x="4" y="5" width="1" height="1" fill="#242c3c"/><rect x="5" y="5" width="1" height="1" fill="#14121c"/><rect x="6" y="5" width="1" height="1" fill="#e8c8a0"/><rect x="7" y="5" width="1" height="1" fill="#20202c"/><rect x="8" y="5" width="1" height="1" fill="#20202c"/><rect x="9" y="5" width="1" height="1" fill="#e8c8a0"/><rect x="10" y="5" width="1" height="1" fill="#14121c"/><rect x="11" y="5" width="1" height="1" fill="#242c3c"/><rect x="12" y="5" width="1" height="1" fill="#14121c"/><rect x="3" y="6" width="1" height="1" fill="#14121c"/><rect x="4" y="6" width="1" height="1" fill="#242c3c"/><rect x="5" y="6" width="1" height="1" fill="#14121c"/><rect x="6" y="6" width="1" height="1" fill="#e8c8a0"/><rect x="7" y="6" width="1" height="1" fill="#e8c8a0"/><rect x="8" y="6" width="1" height="1" fill="#e8c8a0"/><rect x="9" y="6" width="1" height="1" fill="#e8c8a0"/><rect x="10" y="6" width="1" height="1" fill="#14121c"/><rect x="11" y="6" width="1" height="1" fill="#242c3c"/><rect x="12" y="6" width="1" height="1" fill="#14121c"/><rect x="4" y="7" width="1" height="1" fill="#14121c"/><rect x="5" y="7" width="1" height="1" fill="#3a4458"/><rect x="6" y="7" width="1" height="1" fill="#3a4458"/><rect x="7" y="7" width="1" height="1" fill="#3a4458"/><rect x="8" y="7" width="1" height="1" fill="#3a4458"/><rect x="9" y="7" width="1" height="1" fill="#3a4458"/><rect x="10" y="7" width="1" height="1" fill="#3a4458"/><rect x="11" y="7" width="1" height="1" fill="#14121c"/><rect x="3" y="8" width="1" height="1" fill="#14121c"/><rect x="4" y="8" width="1" height="1" fill="#4e5a72"/><rect x="5" y="8" width="1" height="1" fill="#3a4458"/><rect x="6" y="8" width="1" height="1" fill="#3a4458"/><rect x="7" y="8" width="1" height="1" fill="#3a4458"/><rect x="8" y="8" width="1" height="1" fill="#3a4458"/><rect x="9" y="8" width="1" height="1" fill="#3a4458"/><rect x="10" y="8" width="1" height="1" fill="#3a4458"/><rect x="11" y="8" width="1" height="1" fill="#4e5a72"/><rect x="12" y="8" width="1" height="1" fill="#14121c"/><rect x="3" y="9" width="1" height="1" fill="#14121c"/><rect x="4" y="9" width="1" height="1" fill="#3a4458"/><rect x="5" y="9" width="1" height="1" fill="#3a4458"/><rect x="6" y="9" width="1" height="1" fill="#3a4458"/><rect x="7" y="9" width="1" height="1" fill="#3a4458"/><rect x="8" y="9" width="1" height="1" fill="#3a4458"/><rect x="9" y="9" width="1" height="1" fill="#3a4458"/><rect x="10" y="9" width="1" height="1" fill="#3a4458"/><rect x="11" y="9" width="1" height="1" fill="#3a4458"/><rect x="12" y="9" width="1" height="1" fill="#14121c"/><rect x="3" y="10" width="1" height="1" fill="#14121c"/><rect x="4" y="10" width="1" height="1" fill="#3a4458"/><rect x="5" y="10" width="1" height="1" fill="#c9a55c"/><rect x="6" y="10" width="1" height="1" fill="#c9a55c"/><rect x="7" y="10" width="1" height="1" fill="#c9a55c"/><rect x="8" y="10" width="1" height="1" fill="#c9a55c"/><rect x="9" y="10" width="1" height="1" fill="#c9a55c"/><rect x="10" y="10" width="1" height="1" fill="#c9a55c"/><rect x="11" y="10" width="1" height="1" fill="#3a4458"/><rect x="12" y="10" width="1" height="1" fill="#14121c"/><rect x="3" y="11" width="1" height="1" fill="#14121c"/><rect x="4" y="11" width="1" height="1" fill="#2a3140"/><rect x="5" y="11" width="1" height="1" fill="#3a4458"/><rect x="6" y="11" width="1" height="1" fill="#3a4458"/><rect x="7" y="11" width="1" height="1" fill="#3a4458"/><rect x="8" y="11" width="1" height="1" fill="#3a4458"/><rect x="9" y="11" width="1" height="1" fill="#3a4458"/><rect x="10" y="11" width="1" height="1" fill="#3a4458"/><rect x="11" y="11" width="1" height="1" fill="#2a3140"/><rect x="12" y="11" width="1" height="1" fill="#14121c"/><rect x="4" y="12" width="1" height="1" fill="#14121c"/><rect x="5" y="12" width="1" height="1" fill="#2a3140"/><rect x="6" y="12" width="1" height="1" fill="#3a4458"/><rect x="7" y="12" width="1" height="1" fill="#3a4458"/><rect x="8" y="12" width="1" height="1" fill="#3a4458"/><rect x="9" y="12" width="1" height="1" fill="#3a4458"/><rect x="10" y="12" width="1" height="1" fill="#2a3140"/><rect x="11" y="12" width="1" height="1" fill="#14121c"/><rect x="4" y="13" width="1" height="1" fill="#14121c"/><rect x="5" y="13" width="1" height="1" fill="#3a4458"/><rect x="6" y="13" width="1" height="1" fill="#3a4458"/><rect x="9" y="13" width="1" height="1" fill="#3a4458"/><rect x="10" y="13" width="1" height="1" fill="#3a4458"/><rect x="11" y="13" width="1" height="1" fill="#14121c"/><rect x="4" y="14" width="1" height="1" fill="#14121c"/><rect x="5" y="14" width="1" height="1" fill="#2a3140"/><rect x="6" y="14" width="1" height="1" fill="#14121c"/><rect x="9" y="14" width="1" height="1" fill="#14121c"/><rect x="10" y="14" width="1" height="1" fill="#2a3140"/><rect x="11" y="14" width="1" height="1" fill="#14121c"/><rect x="4" y="15" width="1" height="1" fill="#14121c"/><rect x="5" y="15" width="1" height="1" fill="#14121c"/><rect x="10" y="15" width="1" height="1" fill="#14121c"/><rect x="11" y="15" width="1" height="1" fill="#14121c"/></svg>